<?xml version="1.0" standalone="no"?><!DOCTYPE svg PUBLIC "-//W3C//DTD SVG 1.1//EN" "http://www.w3.org/Graphics/SVG/1.1/DTD/svg11.dtd"><svg t="1563517380808" class="icon" viewBox="0 0 1205 1024" version="1.1" xmlns="http://www.w3.org/2000/svg" p-id="2611" xmlns:xlink="http://www.w3.org/1999/xlink" width="235.3515625" height="200"><defs><style type="text/css"></style></defs><path d="M389.119981 151.552006C372.735981 151.552006 360.44798 139.264005 360.44798 122.880005S372.735981 94.208004 389.119981 94.208004l786.432031 0c16.384001 0 28.672001 12.288 28.672001 28.672001S1191.936014 151.552006 1175.552013 151.552006L389.119981 151.552006zM389.119981 540.672022c-16.384001 0-28.672001-12.288-28.672001-28.672001s12.288-28.672001 28.672001-28.672001l782.336031 0c16.384001 0 28.672001 12.288 28.672001 28.672001s-12.288 28.672001-28.672001 28.672001L389.119981 540.672022zM389.119981 929.792037c-16.384001 0-28.672001-12.288-28.672001-28.672001s12.288-28.672001 28.672001-28.672001l782.336031 0c16.384001 0 28.672001 12.288 28.672001 28.672001s-12.288 28.672001-28.672001 28.672001L389.119981 929.792037zM122.879971 245.76001c-69.632003 0-122.880005-53.248002-122.880005-122.880005s53.248002-122.880005 122.880005-122.880005 122.880005 53.248002 122.880005 122.880005S192.511974 245.76001 122.879971 245.76001zM122.879971 57.344002C86.015969 57.344002 57.343968 86.016003 57.343968 122.880005S86.015969 188.416007 122.879971 188.416007s65.536003-28.672001 65.536003-65.536003S159.743972 57.344002 122.879971 57.344002zM122.879971 634.880025c-69.632003 0-122.880005-53.248002-122.880005-122.880005s53.248002-122.880005 122.880005-122.880005 122.880005 53.248002 122.880005 122.880005S192.511974 634.880025 122.879971 634.880025zM122.879971 446.464018c-36.864001 0-65.536003 28.672001-65.536003 65.536003S86.015969 577.536023 122.879971 577.536023s65.536003-28.672001 65.536003-65.536003S159.743972 446.464018 122.879971 446.464018zM122.879971 1024.000041c-69.632003 0-122.880005-53.248002-122.880005-122.880005s53.248002-122.880005 122.880005-122.880005 122.880005 53.248002 122.880005 122.880005S192.511974 1024.000041 122.879971 1024.000041zM122.879971 835.584033c-36.864001 0-65.536003 28.672001-65.536003 65.536003s28.672001 65.536003 65.536003 65.536003 65.536003-28.672001 65.536003-65.536003S159.743972 835.584033 122.879971 835.584033z" fill="#00ccff" p-id="2612"></path></svg>